<?xml version="1.0" standalone="no"?>
<!DOCTYPE svg PUBLIC "-//W3C//DTD SVG 20010904//EN"
 "http://www.w3.org/TR/2001/REC-SVG-20010904/DTD/svg10.dtd">
<svg version="1.0" xmlns="http://www.w3.org/2000/svg"
 width="1024.000000pt" height="1024.000000pt" viewBox="0 0 1024.000000 1024.000000"
 preserveAspectRatio="xMidYMid meet">

<g transform="translate(0.000000,1024.000000) scale(0.100000,-0.100000)"
fill="#000000" stroke="none">
<path d="M0 5120 l0 -5120 5120 0 5120 0 0 5120 0 5120 -5120 0 -5120 0 0
-5120z m4845 4090 c14 -22 25 -43 25 -47 0 -4 10 -18 23 -31 12 -14 15 -22 7
-18 -12 6 -12 5 1 -6 9 -7 19 -26 23 -41 4 -17 11 -25 18 -21 6 4 8 3 5 -3 -4
-6 2 -28 12 -49 10 -21 17 -44 14 -51 -3 -7 0 -13 7 -13 7 0 10 -7 6 -15 -3
-8 -1 -15 4 -15 6 0 9 -3 8 -7 -1 -5 4 -21 10 -36 7 -16 10 -33 6 -38 -3 -5
-1 -9 3 -9 13 0 42 -220 43 -325 1 -81 -28 -268 -46 -296 -3 -6 -8 -25 -11
-42 -3 -18 -23 -70 -46 -117 -23 -47 -41 -91 -40 -98 0 -7 -1 -11 -4 -8 -3 3
-19 -21 -36 -54 -17 -32 -34 -57 -38 -55 -4 3 -5 -4 -2 -15 3 -11 1 -20 -4
-20 -5 0 -15 -16 -23 -35 -8 -19 -18 -35 -23 -35 -5 0 -6 -7 -3 -16 3 -8 2
-13 -3 -9 -5 3 -12 -8 -16 -24 -3 -16 -13 -35 -21 -42 -8 -6 -14 -15 -14 -20
0 -5 -11 -32 -24 -61 -24 -53 -64 -162 -84 -228 -13 -43 -39 -205 -39 -245 0
-16 3 -66 8 -110 4 -44 11 -107 14 -139 3 -32 9 -64 13 -70 3 -6 8 -19 9 -29
3 -18 62 -168 86 -217 7 -14 34 -64 60 -112 27 -48 46 -91 43 -96 -3 -5 4 -21
15 -38 51 -77 -18 -132 -81 -64 -15 17 -33 30 -39 30 -28 0 -184 272 -194 340
-2 11 -6 23 -10 26 -4 4 -7 19 -7 34 0 15 -3 30 -7 34 -4 3 -8 14 -9 22 -2 9
-8 37 -14 63 -6 25 -12 69 -15 96 -2 28 -7 61 -10 75 -4 14 -3 20 2 13 4 -6 7
51 7 128 -1 82 2 139 8 139 5 0 6 5 3 10 -17 28 68 323 120 420 8 14 31 60 51
102 20 43 40 75 45 72 5 -3 6 1 3 9 -3 8 9 35 25 60 17 25 31 50 31 57 0 6 5
8 12 4 7 -4 8 -3 4 5 -4 6 0 23 8 36 9 14 13 25 10 25 -4 0 0 8 8 18 17 20 58
106 58 122 0 6 5 8 10 5 10 -6 14 7 11 32 -1 7 3 21 8 31 10 18 41 145 46 187
15 126 16 162 6 222 -6 37 -13 82 -15 98 -8 50 -35 141 -57 192 -11 26 -18 55
-16 65 3 10 2 16 -2 14 -6 -4 -43 81 -47 109 0 6 -2 12 -3 15 -2 3 -4 12 -6
20 -2 8 -10 31 -19 51 -13 32 -13 38 0 57 25 35 60 28 89 -18z m440 -3211
c154 -11 294 -22 310 -24 17 -2 67 -7 113 -10 45 -3 102 -9 125 -15 23 -5 65
-11 92 -14 28 -3 73 -10 100 -16 28 -7 75 -15 105 -20 78 -12 147 -28 168 -39
9 -5 20 -10 24 -10 46 -8 68 -15 68 -23 0 -5 4 -7 9 -4 12 8 121 -31 153 -54
15 -11 34 -20 41 -20 8 0 26 -9 40 -20 14 -11 28 -20 31 -20 12 0 115 -114
110 -122 -3 -4 -1 -8 5 -8 11 0 41 -96 41 -132 0 -26 -23 -95 -46 -140 -25
-48 -132 -147 -152 -140 -7 2 -12 -1 -12 -6 0 -12 -114 -67 -158 -76 -17 -4
-34 -12 -37 -17 -4 -5 -17 -9 -30 -9 -13 0 -27 -5 -30 -11 -4 -5 -12 -8 -18
-6 -7 2 -19 1 -28 -4 -45 -23 -556 -112 -609 -106 -8 1 -53 -4 -100 -11 -207
-30 -792 -62 -1122 -62 -213 0 -714 28 -808 45 -19 3 -44 8 -55 10 -85 15
-143 29 -191 45 -31 11 -61 17 -67 13 -6 -3 -7 -1 -3 5 4 7 2 12 -4 12 -20 0
-124 53 -165 84 -55 41 -143 136 -127 136 4 0 1 4 -7 9 -17 11 -16 157 1 178
15 19 58 13 72 -10 14 -24 154 -162 186 -184 14 -9 31 -24 38 -33 8 -8 11 -10
9 -5 -3 6 25 -4 61 -21 97 -46 291 -92 477 -113 211 -25 978 -36 1103 -17 20
3 114 11 207 16 197 13 514 51 665 82 58 11 134 26 170 33 36 7 83 20 104 29
21 9 53 18 70 21 52 7 207 66 270 103 146 85 173 171 83 261 -47 47 -119 90
-187 111 -25 7 -49 17 -55 20 -5 4 -50 17 -100 29 -49 13 -115 29 -145 36 -30
8 -89 19 -130 24 -41 6 -88 13 -105 16 -365 55 -644 70 -1175 61 -234 -3 -463
-10 -510 -15 -354 -39 -340 -37 -472 -66 -256 -57 -484 -118 -503 -136 -5 -5
-15 -9 -22 -9 -7 0 -38 -12 -70 -27 -32 -14 -61 -25 -65 -25 -5 1 -8 -2 -8 -8
0 -5 -14 -17 -30 -25 -56 -29 -134 -132 -147 -195 -7 -36 -3 -208 6 -249 48
-222 78 -341 107 -426 60 -178 157 -422 184 -465 6 -8 15 -26 21 -40 19 -45
60 -120 101 -187 11 -18 16 -33 12 -33 -4 0 1 -6 12 -14 10 -8 19 -18 20 -23
2 -19 31 -72 57 -104 16 -19 56 -70 88 -114 101 -135 308 -337 400 -390 163
-93 215 -119 302 -149 188 -64 299 -79 557 -72 107 3 209 7 225 10 17 4 55 10
85 15 112 18 381 104 418 133 6 6 12 7 12 3 0 -4 6 -2 14 4 17 14 127 68 140
69 5 0 12 4 15 9 10 14 70 53 81 53 5 0 10 5 10 10 0 6 6 10 14 10 8 0 21 8
28 19 7 10 15 18 18 17 14 -2 99 67 94 76 -5 7 -2 8 5 3 8 -4 18 1 27 14 8 12
19 21 25 21 11 0 49 37 43 42 -2 3 7 11 21 18 14 7 25 19 25 26 0 7 9 16 21
19 11 4 19 9 16 11 -2 2 14 24 37 48 58 62 95 106 87 106 -3 0 1 6 9 13 22 17
112 154 141 212 13 28 27 52 32 53 4 2 7 8 7 13 0 6 9 29 21 52 29 60 119 308
119 329 0 10 4 18 9 18 5 0 12 15 15 33 3 18 16 50 27 72 12 22 21 41 21 42
-1 2 5 18 13 37 8 20 15 38 15 41 0 14 95 204 116 231 13 18 25 38 26 45 2 8
5 16 8 19 3 3 25 32 50 65 51 69 84 103 156 156 101 75 253 129 361 129 47 0
166 -17 193 -27 17 -7 28 -9 52 -11 9 -1 24 -9 33 -18 8 -9 22 -13 30 -10 8 3
15 1 15 -4 0 -6 4 -10 9 -10 13 0 166 -106 199 -138 15 -14 20 -22 12 -17 -8
5 -4 -3 10 -16 56 -56 80 -91 131 -197 22 -46 38 -90 35 -98 -3 -8 -2 -13 3
-10 10 6 10 8 16 -149 4 -103 -8 -200 -24 -191 -4 3 -8 -9 -9 -26 -1 -16 -18
-54 -36 -83 -19 -29 -31 -57 -28 -61 4 -4 1 -4 -6 0 -8 5 -16 -2 -22 -20 -10
-24 -53 -74 -66 -74 -2 0 -12 -8 -22 -17 -37 -36 -68 -58 -95 -71 -15 -6 -26
-16 -23 -20 3 -5 0 -9 -7 -10 -7 0 -40 -12 -73 -26 -34 -14 -75 -28 -90 -30
-16 -2 -37 -7 -47 -11 -27 -11 -226 2 -272 18 -62 22 -175 89 -183 109 -2 4
-8 8 -13 8 -28 0 -145 141 -135 165 3 8 0 14 -6 12 -7 -1 -13 7 -14 18 0 12
-6 31 -13 43 -33 63 46 107 88 49 7 -10 19 -16 26 -13 7 2 16 -2 19 -10 3 -8
10 -14 15 -14 5 0 36 -28 68 -61 96 -102 193 -156 293 -165 78 -8 203 3 195
17 -6 9 14 13 50 11 16 -2 17 0 5 8 -12 7 -12 10 -1 10 7 0 33 14 58 30 24 17
49 30 54 30 6 0 8 4 5 9 -3 4 13 23 35 41 22 17 38 34 36 37 -3 2 6 16 19 30
13 14 21 29 19 33 -3 4 1 10 9 13 17 7 56 149 56 203 0 21 -7 64 -16 94 -8 30
-16 60 -18 65 -1 6 -7 20 -14 31 -6 12 -8 24 -5 28 3 3 2 6 -4 6 -5 0 -20 20
-32 46 -13 25 -31 50 -42 57 -10 6 -19 16 -19 21 0 13 -99 104 -131 121 -15 8
-29 12 -33 10 -3 -3 -4 -2 -1 2 3 3 -25 20 -63 36 -59 27 -79 30 -167 31 -81
1 -113 -4 -168 -22 -37 -13 -73 -29 -80 -35 -6 -7 -37 -31 -67 -54 -30 -23
-64 -54 -75 -70 -11 -15 -27 -34 -35 -43 -23 -24 -80 -115 -80 -129 0 -7 -4
-9 -10 -6 -5 3 -10 -1 -10 -9 0 -9 -13 -37 -29 -63 -16 -27 -32 -58 -36 -70
-3 -13 -11 -23 -16 -23 -5 0 -9 -6 -8 -12 1 -7 -3 -26 -10 -43 -7 -16 -32 -82
-57 -145 -25 -63 -54 -134 -65 -158 -10 -24 -17 -48 -14 -53 4 -5 2 -9 -3 -9
-5 0 -12 -12 -15 -27 -3 -16 -17 -54 -31 -86 -14 -31 -26 -60 -27 -65 -1 -4
-10 -19 -20 -34 -10 -14 -19 -31 -19 -36 0 -6 -6 -17 -14 -24 -8 -8 -25 -37
-40 -65 -35 -70 -113 -180 -132 -187 -9 -4 -14 -13 -10 -22 3 -8 2 -13 -3 -10
-5 3 -14 -1 -21 -9 -7 -8 -10 -15 -6 -15 10 0 -49 -64 -162 -177 -57 -57 -108
-103 -113 -103 -6 0 -7 -5 -3 -12 4 -7 3 -8 -5 -4 -7 5 -23 -4 -39 -22 -15
-16 -41 -39 -59 -51 -52 -35 -83 -62 -146 -128 -63 -65 -74 -71 -219 -103 -32
-7 -55 -17 -52 -22 3 -4 -2 -9 -10 -9 -20 -2 -25 -3 -61 -18 -117 -48 -156
-62 -165 -56 -5 3 -10 1 -10 -5 0 -7 -6 -10 -14 -7 -7 3 -17 2 -22 -2 -13 -11
-83 -28 -194 -48 -219 -37 -655 -22 -780 27 -14 6 -36 12 -49 15 -34 6 -94 26
-106 35 -20 14 -123 42 -145 38 -31 -4 -44 -29 -36 -64 9 -36 128 -150 173
-166 18 -7 33 -16 33 -20 0 -4 9 -8 19 -8 11 0 22 -4 25 -9 5 -8 82 -33 186
-61 25 -7 67 -14 95 -17 27 -2 77 -8 110 -14 177 -27 526 3 715 61 19 6 46 13
59 16 24 5 135 58 155 75 6 5 34 26 63 47 56 40 113 106 113 129 0 7 7 16 15
20 9 3 22 18 30 32 18 35 82 59 114 42 19 -11 21 -19 19 -66 -2 -29 -5 -51 -8
-50 -4 2 -6 -11 -6 -28 0 -18 -12 -49 -28 -72 -31 -45 -134 -155 -145 -155 -4
0 -16 -9 -27 -21 -22 -25 -175 -109 -198 -109 -9 0 -16 -4 -16 -8 0 -20 -209
-71 -411 -101 -121 -19 -424 -13 -566 10 -122 20 -296 70 -363 106 -75 39
-190 119 -190 131 0 6 -5 12 -10 12 -15 0 -98 87 -105 110 -4 11 -10 20 -15
20 -5 0 -7 8 -3 18 3 9 2 13 -2 9 -13 -11 -31 60 -34 125 -1 47 2 59 19 71 20
14 20 18 9 55 -12 40 -34 66 -176 204 -67 65 -111 113 -134 146 -8 12 -19 19
-22 15 -4 -3 -7 -1 -7 5 0 7 -19 36 -42 65 -24 29 -54 67 -68 85 -14 17 -29
32 -33 32 -24 0 -78 77 -97 138 -12 37 -28 79 -36 94 -8 14 -14 33 -14 42 0 9
-5 16 -11 16 -5 0 -7 5 -4 10 3 6 2 10 -3 10 -4 0 -27 42 -51 93 -23 50 -53
115 -66 142 -39 81 -115 297 -108 308 4 6 1 7 -7 2 -10 -6 -12 -4 -7 8 3 10 2
17 -3 17 -5 0 -9 8 -8 18 0 9 -12 50 -26 89 -14 40 -27 83 -29 95 -2 13 -6 30
-10 38 -9 24 -20 74 -19 82 1 4 -3 19 -8 33 -11 30 -39 198 -44 270 -5 69 18
222 40 270 11 22 27 46 37 54 10 7 16 19 13 27 -3 8 -2 13 2 11 4 -1 7 2 7 6
0 5 11 15 25 22 14 7 25 19 25 26 0 6 14 19 30 28 17 9 44 26 59 39 16 12 37
22 47 22 11 0 19 5 19 11 0 5 5 7 10 4 6 -3 10 -2 10 3 0 5 10 12 23 15 12 3
60 19 106 36 47 17 87 29 89 26 3 -3 11 0 18 5 6 6 20 12 30 15 11 2 45 10 77
19 32 8 76 18 99 21 22 4 52 11 67 17 111 45 648 106 1156 132 99 5 323 -4
620 -25z m-2175 -2253 c22 -27 8 -60 -35 -81 -22 -11 -44 -26 -48 -33 -5 -7
-64 -39 -131 -71 -185 -87 -278 -150 -379 -255 -139 -144 -196 -283 -174 -426
8 -52 53 -161 70 -168 4 -2 7 -9 7 -16 0 -8 12 -26 28 -41 15 -16 20 -25 13
-20 -8 5 16 -21 55 -58 84 -81 102 -97 109 -97 3 1 12 -5 20 -12 21 -20 96
-73 103 -74 18 -2 41 -17 37 -23 -2 -4 1 -8 8 -8 7 0 51 -19 98 -42 47 -22 91
-41 98 -41 6 0 11 -4 11 -10 0 -5 7 -7 15 -4 8 4 15 1 15 -5 0 -6 3 -10 8 -9
11 2 95 -23 107 -32 6 -5 33 -13 60 -19 28 -5 93 -21 145 -36 52 -14 110 -27
127 -30 18 -2 48 -7 67 -10 19 -4 47 -8 63 -10 15 -2 91 -12 168 -23 309 -44
947 -57 1335 -26 41 3 82 6 90 6 34 -1 391 40 460 53 41 7 107 18 145 25 80
14 261 54 320 72 22 6 42 12 45 13 26 5 178 60 187 67 6 5 17 8 25 7 7 -1 33
7 58 19 24 11 48 18 52 16 4 -3 8 0 8 5 0 6 5 11 11 11 15 0 143 63 147 73 2
4 10 7 17 7 8 0 51 25 95 55 44 30 83 55 87 55 14 0 192 177 185 184 -3 3 0 6
6 6 7 0 31 39 54 87 37 76 43 96 43 154 0 37 3 65 7 63 7 -4 -32 105 -51 146
-22 46 -51 95 -51 88 0 -4 -21 16 -47 45 -27 29 -52 55 -58 59 -11 8 -65 52
-98 81 -11 9 -24 17 -29 17 -5 0 -24 11 -42 25 -18 14 -37 25 -42 25 -17 0
-153 95 -154 108 0 7 -8 15 -17 19 -48 17 -69 67 -39 92 13 11 108 13 102 2
-2 -3 7 -7 20 -7 13 -1 21 2 18 8 -6 9 138 -65 159 -82 7 -6 46 -32 88 -60 98
-64 248 -211 285 -280 16 -30 28 -57 27 -62 -2 -4 1 -8 6 -8 7 0 33 -50 37
-72 1 -5 3 -9 4 -10 1 -2 4 -12 6 -23 2 -11 8 -38 13 -60 6 -22 11 -58 11 -80
0 -49 -46 -239 -59 -243 -6 -2 -7 -10 -4 -19 4 -9 2 -14 -3 -11 -5 4 -18 -12
-29 -35 -11 -22 -33 -53 -48 -69 -16 -15 -25 -28 -21 -28 7 0 -8 -15 -111
-105 -31 -27 -67 -60 -80 -71 -13 -12 -26 -19 -29 -16 -4 3 -15 -3 -26 -14
-39 -39 -106 -83 -95 -63 3 8 1 7 -7 -2 -7 -8 -27 -22 -45 -29 -17 -8 -29 -18
-26 -24 3 -5 2 -6 -4 -3 -6 4 -41 -9 -79 -28 -38 -20 -86 -40 -106 -47 -21 -6
-38 -15 -38 -20 0 -4 -3 -7 -7 -6 -12 2 -64 -14 -92 -28 -14 -8 -34 -14 -43
-14 -9 0 -19 -4 -22 -9 -3 -5 -23 -12 -43 -16 -45 -10 -31 -6 -168 -45 -60
-17 -129 -38 -153 -45 -23 -8 -40 -10 -37 -5 4 6 -3 7 -18 1 -14 -6 -44 -13
-68 -16 -24 -4 -47 -9 -51 -11 -11 -7 -235 -44 -303 -50 -33 -3 -66 -7 -74
-10 -8 -2 -46 -7 -85 -10 -39 -2 -116 -10 -171 -16 -63 -8 -268 -12 -560 -12
-440 0 -470 1 -690 27 -293 35 -608 92 -640 116 -5 4 -19 8 -30 8 -11 1 -40 8
-65 17 -25 9 -54 16 -65 16 -11 0 -30 7 -42 15 -12 9 -26 14 -30 13 -4 -1 -26
6 -48 16 -110 50 -127 56 -137 50 -6 -4 -8 -3 -5 3 4 5 -12 16 -35 24 -22 7
-58 26 -80 41 -21 16 -43 26 -49 23 -5 -4 -8 -1 -7 7 2 7 -4 13 -12 13 -8 0
-24 8 -34 18 -11 9 -24 17 -28 17 -5 0 -7 4 -4 9 3 5 -2 8 -12 7 -9 0 -16 4
-15 10 1 7 -5 11 -15 10 -9 0 -16 4 -15 11 1 6 -4 14 -13 17 -10 4 -13 2 -8
-7 4 -6 -2 -4 -14 7 -12 10 -19 23 -15 29 3 6 1 7 -5 3 -12 -7 -102 80 -102
99 0 6 -12 22 -27 36 -14 13 -23 17 -19 9 4 -8 -2 -4 -13 10 -11 14 -21 28
-21 32 0 4 -14 30 -30 58 -17 28 -28 56 -25 61 4 5 -1 9 -10 9 -12 0 -15 6
-10 20 3 11 2 20 -3 20 -11 0 -21 59 -27 155 -4 70 17 179 44 234 11 21 18 41
16 45 -3 3 -2 4 1 2 3 -3 19 22 36 54 16 33 43 74 61 92 17 18 31 35 31 38 0
3 18 23 40 45 22 22 37 34 32 28 -4 -7 -2 -13 3 -13 6 0 11 7 11 15 0 8 26 34
58 57 31 24 62 48 68 53 6 6 28 19 50 30 21 11 45 26 52 33 7 6 17 12 22 12 5
0 31 14 57 30 26 17 67 36 91 42 23 6 42 14 42 19 0 8 36 13 131 17 39 1 60
-2 69 -12z m-740 -1226 c0 -5 -2 -10 -4 -10 -3 0 -8 5 -11 10 -3 6 -1 10 4 10
6 0 11 -4 11 -10z"/>
</g>
</svg>
